<svg xmlns="http://www.w3.org/2000/svg" viewBox="0 0 64 64" role="img" aria-label="Fasskoll favicon">
  <defs>
    <linearGradient id="bg" x1="8" y1="6" x2="56" y2="58" gradientUnits="userSpaceOnUse">
      <stop offset="0" stop-color="#0d9488"/>
      <stop offset="1" stop-color="#0f766e"/>
    </linearGradient>
    <linearGradient id="shield" x1="20" y1="16" x2="44" y2="48" gradientUnits="userSpaceOnUse">
      <stop offset="0" stop-color="#ffffff" stop-opacity="0.98"/>
      <stop offset="1" stop-color="#e6fffb" stop-opacity="0.95"/>
    </linearGradient>
  </defs>

  <rect x="4" y="4" width="56" height="56" rx="16" fill="url(#bg)"/>

  <path d="M32 12c5.7 4.3 12.3 5.9 16 6.4v12.3c0 10.2-6.3 17-16 21.3-9.7-4.3-16-11.1-16-21.3V18.4c3.7-.5 10.3-2.1 16-6.4Z" fill="url(#shield)"/>

  <path d="M32 22c.9 0 1.7.8 1.7 1.7v4.6h4.6c.9 0 1.7.8 1.7 1.7v1.8c0 .9-.8 1.7-1.7 1.7h-4.6v4.6c0 .9-.8 1.7-1.7 1.7h-1.8c-.9 0-1.7-.8-1.7-1.7v-4.6h-4.6c-.9 0-1.7-.8-1.7-1.7V30c0-.9.8-1.7 1.7-1.7h4.6v-4.6c0-.9.8-1.7 1.7-1.7h1.8Z" fill="#0f766e"/>

  <path d="m23.5 45.1 4.1 4.1 13-13" fill="none" stroke="#14b8a6" stroke-width="3" stroke-linecap="round" stroke-linejoin="round"/>
</svg>
